<svg width="75" height="75" viewBox="0 0 75 75" fill="none" xmlns="http://www.w3.org/2000/svg">
<path d="M37.5 75C58.2107 75 75 58.2107 75 37.5C75 16.7893 58.2107 0 37.5 0C16.7893 0 0 16.7893 0 37.5C0 58.2107 16.7893 75 37.5 75Z" fill="#FFDE3D"/>
<mask id="mask0_191_601" style="mask-type:alpha" maskUnits="userSpaceOnUse" x="14" y="13" width="48" height="51">
<path d="M14 13H61.9651V63.6536H14V13Z" fill="white"/>
</mask>
<g mask="url(#mask0_191_601)">
<path opacity="0.1" fill-rule="evenodd" clip-rule="evenodd" d="M47.9943 54.8358C46.6453 57.0168 45.0752 58.8205 43.2858 60.2471C41.4954 61.6738 39.5366 62.6588 37.4082 63.2029C35.2799 63.7471 33.014 63.7985 30.6123 63.3563C28.2099 62.9135 25.7494 61.9085 23.2325 60.3398C20.6798 58.749 18.6742 56.9708 17.2137 55.0063C15.7528 53.0412 14.7944 50.9803 14.3361 48.8243C13.8779 46.6682 13.8878 44.4687 14.3681 42.2253C14.8471 39.9822 15.7617 37.7701 17.1106 35.5891L31.0814 12.9999L39.1515 18.0292L25.3733 40.3067C24.6668 41.4491 24.1946 42.6183 23.9575 43.8128C23.7199 45.0082 23.709 46.1648 23.9258 47.2825C24.1415 48.4006 24.5836 49.4437 25.2521 50.4112C25.9191 51.3788 26.7877 52.1955 27.8573 52.8619C28.9258 53.5281 30.0316 53.9416 31.1751 54.1024C32.3175 54.2637 33.4361 54.1929 34.5308 53.8915C35.6241 53.5903 36.6526 53.068 37.6145 52.3239C38.576 51.5809 39.4102 50.6373 40.1168 49.4949L53.8948 27.2174L61.9651 32.2467L47.9943 54.8358Z" fill="black"/>
</g>
<path fill-rule="evenodd" clip-rule="evenodd" d="M20.3319 26.4559H22.4011C22.716 26.4559 23.0495 26.4446 23.4019 26.422C23.754 26.3995 24.0728 26.3317 24.3579 26.2189C24.6425 26.1059 24.8786 25.9291 25.0663 25.6883C25.2536 25.4476 25.3474 25.109 25.3474 24.6722C25.3474 24.2658 25.2648 23.9425 25.1 23.7015C24.9349 23.461 24.725 23.2764 24.4703 23.1484C24.215 23.0205 23.9227 22.9339 23.593 22.8887C23.2632 22.8435 22.9409 22.8209 22.626 22.8209H20.3319V26.4559ZM16.8232 19.8407H22.9859C23.7955 19.8407 24.5637 19.9198 25.2912 20.0777C26.0183 20.2358 26.6555 20.4993 27.203 20.868C27.75 21.237 28.1849 21.7337 28.5075 22.3581C28.8296 22.9828 28.9909 23.7618 28.9909 24.6949C28.9909 25.8237 28.6986 26.7832 28.1139 27.5735C27.5291 28.3636 26.6744 28.8643 25.5499 29.0748L29.5983 35.8253H25.3923L22.0636 29.4361H20.3319V35.8253H16.8232V19.8407Z" fill="black" fill-opacity="0.3"/>
<path fill-rule="evenodd" clip-rule="evenodd" d="M15.2485 43.7268H19.252L23.188 54.2026H23.233L27.2363 43.7268H30.9924L24.425 59.7114H21.6135L15.2485 43.7268Z" fill="black" fill-opacity="0.3"/>
<path fill-rule="evenodd" clip-rule="evenodd" d="M43.9268 51.7191C43.9268 52.4719 44.0428 53.1604 44.2754 53.785C44.5076 54.4097 44.8413 54.9516 45.2763 55.4104C45.7111 55.8697 46.2321 56.2271 46.8394 56.4828C47.4466 56.739 48.125 56.8667 48.8749 56.8667C49.6246 56.8667 50.3031 56.739 50.9103 56.4828C51.5176 56.2271 52.0383 55.8697 52.4735 55.4104C52.9081 54.9516 53.2416 54.4097 53.4743 53.785C53.7066 53.1604 53.8229 52.4719 53.8229 51.7191C53.8229 50.9818 53.7066 50.2967 53.4743 49.6645C53.2416 49.0324 52.9081 48.487 52.4735 48.0277C52.0383 47.5687 51.5176 47.2115 50.9103 46.9553C50.3031 46.6996 49.6246 46.5715 48.8749 46.5715C48.125 46.5715 47.4466 46.6996 46.8394 46.9553C46.2321 47.2115 45.7111 47.5687 45.2763 48.0277C44.8413 48.487 44.5076 49.0324 44.2754 49.6645C44.0428 50.2967 43.9268 50.9818 43.9268 51.7191ZM40.2832 51.7191C40.2832 50.4399 40.4969 49.2808 40.9242 48.2422C41.3516 47.2037 41.9476 46.3196 42.7123 45.5894C43.477 44.8595 44.384 44.2989 45.4338 43.9074C46.483 43.5161 47.6302 43.3204 48.8749 43.3204C50.1194 43.3204 51.2664 43.5161 52.3161 43.9074C53.3654 44.2989 54.2728 44.8595 55.0375 45.5894C55.8022 46.3196 56.3982 47.2037 56.8256 48.2422C57.2528 49.2808 57.4665 50.4399 57.4665 51.7191C57.4665 52.9985 57.2528 54.1575 56.8256 55.196C56.3982 56.2346 55.8022 57.119 55.0375 57.8489C54.2728 58.5791 53.3654 59.1395 52.3161 59.5308C51.2664 59.922 50.1194 60.1178 48.8749 60.1178C47.6302 60.1178 46.483 59.922 45.4338 59.5308C44.384 59.1395 43.477 58.5791 42.7123 57.8489C41.9476 57.119 41.3516 56.2346 40.9242 55.196C40.4969 54.1575 40.2832 52.9985 40.2832 51.7191Z" fill="black" fill-opacity="0.3"/>
<mask id="mask1_191_601" style="mask-type:alpha" maskUnits="userSpaceOnUse" x="14" y="13" width="48" height="51">
<path d="M14 63.6536H61.9651V13H14V63.6536Z" fill="white"/>
</mask>
<g mask="url(#mask1_191_601)">
<path fill-rule="evenodd" clip-rule="evenodd" d="M41.3921 23.1088H55.7712V19.8408H41.3921V23.1088Z" fill="black" fill-opacity="0.3"/>
<path fill-rule="evenodd" clip-rule="evenodd" d="M41.3921 29.3224H55.7712V26.0544H41.3921V29.3224Z" fill="black" fill-opacity="0.3"/>
<path fill-rule="evenodd" clip-rule="evenodd" d="M41.3921 35.536H55.7712V32.268H41.3921V35.536Z" fill="black" fill-opacity="0.3"/>
<path fill-rule="evenodd" clip-rule="evenodd" d="M48.75 35.536H55.7714V32.268H50.7712L48.75 35.536Z" fill="black"/>
<path fill-rule="evenodd" clip-rule="evenodd" d="M52.316 43.9074C51.2662 43.5161 50.1192 43.3204 48.8749 43.3204C47.63 43.3204 46.4831 43.5161 45.4336 43.9074C44.3839 44.2989 43.4768 44.8595 42.7121 45.5894C42.5276 45.7657 42.3532 45.9514 42.1883 46.1458L41.0042 48.0601C40.9775 48.1208 40.9495 48.1804 40.9242 48.2422C40.4969 49.2808 40.2832 50.4399 40.2832 51.7191C40.2832 52.9985 40.4969 54.1575 40.9242 55.196C41.3514 56.2346 41.9476 57.119 42.7121 57.8489C43.2527 58.3649 43.866 58.7946 44.5488 59.1413C45.3758 58.3505 46.1491 57.4676 46.8696 56.4947C46.8596 56.4906 46.8493 56.4871 46.8393 56.4828C46.2321 56.2271 45.7109 55.8697 45.2761 55.4104C44.8411 54.9516 44.5076 54.4097 44.2753 53.785C44.0428 53.1604 43.9266 52.4719 43.9266 51.7191C43.9266 50.9818 44.0428 50.2967 44.2753 49.6645C44.5076 49.0324 44.8411 48.487 45.2761 48.0277C45.7109 47.5687 46.2321 47.2115 46.8393 46.9553C47.4466 46.6996 48.1248 46.5715 48.8749 46.5715C49.6244 46.5715 50.3029 46.6996 50.9103 46.9553C51.4423 47.1797 51.9078 47.4817 52.3077 47.8618L54.1581 44.8697C53.6023 44.4799 52.9887 44.1585 52.316 43.9074Z" fill="black"/>
<path fill-rule="evenodd" clip-rule="evenodd" d="M21.3551 59.0623C21.6501 59.2818 21.9539 59.4983 22.2673 59.7114H24.425L27.3726 52.5375C26.523 51.9354 25.815 51.2276 25.252 50.4112C25.1244 50.2266 25.0079 50.0386 24.8969 49.8485L23.233 54.2025H23.188L19.252 43.7267H15.2485L21.3551 59.0623Z" fill="black"/>
<path fill-rule="evenodd" clip-rule="evenodd" d="M20.3317 35.8254V30.3812L17.1108 35.5892C17.062 35.6678 17.0152 35.7467 16.9678 35.8254H20.3317Z" fill="black"/>
<path fill-rule="evenodd" clip-rule="evenodd" d="M28.1449 35.8254L28.8825 34.6327L25.5494 29.0749C26.6739 28.8642 27.5286 28.3637 28.1134 27.5734C28.6982 26.7833 28.9906 25.8236 28.9906 24.6949C28.9906 23.7617 28.8293 22.9829 28.507 22.3581C28.1844 21.7338 27.7497 21.2371 27.2025 20.8681C26.9733 20.7136 26.7273 20.5788 26.4665 20.4613L24.7109 23.2999C24.8595 23.4099 24.9903 23.5423 25.0996 23.7015C25.2643 23.9424 25.347 24.2659 25.347 24.6723C25.347 25.1089 25.2531 25.4477 25.0659 25.6882C24.8781 25.9292 24.642 26.106 24.3574 26.2188C24.0724 26.3317 23.7535 26.3994 23.4016 26.422C23.1803 26.4361 22.9694 26.4442 22.7631 26.4495L20.916 29.4361H22.0633L25.392 35.8254H28.1449Z" fill="black"/>
<path fill-rule="evenodd" clip-rule="evenodd" d="M52.5928 29.3224H55.7712V28.3869L53.8946 27.2174L52.5928 29.3224Z" fill="black"/>
</g>
<path d="M37.5 75C58.2107 75 75 58.2107 75 37.5C75 16.7893 58.2107 0 37.5 0C16.7893 0 0 16.7893 0 37.5C0 58.2107 16.7893 75 37.5 75Z" fill="#FFDE3D"/>
<mask id="mask2_191_601" style="mask-type:alpha" maskUnits="userSpaceOnUse" x="15" y="11" width="49" height="51">
<path d="M15.8018 11.0849H63.7668V61.7385H15.8018V11.0849Z" fill="white"/>
</mask>
<g mask="url(#mask2_191_601)">
<path opacity="0.1" fill-rule="evenodd" clip-rule="evenodd" d="M49.7961 52.9207C48.4471 55.1017 46.877 56.9054 45.0876 58.3319C43.2971 59.7587 41.3383 60.7436 39.21 61.2878C37.0816 61.832 34.8157 61.8834 32.414 61.4411C30.0116 60.9984 27.5511 59.9934 25.0342 58.4247C22.4816 56.8339 20.476 55.0557 19.0155 53.0912C17.5546 51.1261 16.5961 49.0652 16.1379 46.9092C15.6797 44.753 15.6896 42.5535 16.1699 40.3102C16.6489 38.0671 17.5635 35.855 18.9123 33.674L32.8831 11.0848L40.9533 16.1141L27.1751 38.3916C26.4686 39.534 25.9963 40.7032 25.7592 41.8977C25.5216 43.0931 25.5107 44.2497 25.7276 45.3673C25.9433 46.4854 26.3854 47.5286 27.0538 48.4961C27.7208 49.4637 28.5895 50.2804 29.659 50.9468C30.7276 51.613 31.8334 52.0265 32.9769 52.1873C34.1192 52.3486 35.2379 52.2778 36.3326 51.9764C37.4259 51.6752 38.4544 51.1529 39.4163 50.4088C40.3777 49.6658 41.212 48.7222 41.9185 47.5797L55.6965 25.3023L63.7668 30.3316L49.7961 52.9207Z" fill="black"/>
</g>
<path fill-rule="evenodd" clip-rule="evenodd" d="M22.1331 24.5408H24.2023C24.5172 24.5408 24.8507 24.5296 25.2032 24.5069C25.5553 24.4844 25.8741 24.4166 26.1592 24.3038C26.4437 24.1908 26.6798 24.014 26.8675 23.7732C27.0549 23.5325 27.1486 23.1939 27.1486 22.7571C27.1486 22.3507 27.0661 22.0274 26.9013 21.7864C26.7362 21.5459 26.5263 21.3613 26.2715 21.2333C26.0163 21.1054 25.724 21.0188 25.3943 20.9736C25.0644 20.9284 24.7421 20.9058 24.4273 20.9058H22.1331V24.5408ZM18.6245 17.9256H24.7871C25.5968 17.9256 26.365 18.0047 27.0924 18.1626C27.8196 18.3207 28.4567 18.5842 29.0043 18.9529C29.5513 19.3219 29.9861 19.8186 30.3088 20.443C30.6309 21.0677 30.7922 21.8468 30.7922 22.7798C30.7922 23.9086 30.4999 24.8681 29.9151 25.6584C29.3304 26.4485 28.4757 26.9492 27.3511 27.1598L31.3996 33.9102H27.1936L23.8649 27.521H22.1331V33.9102H18.6245V17.9256Z" fill="black" fill-opacity="0.3"/>
<path fill-rule="evenodd" clip-rule="evenodd" d="M17.0503 41.8117H21.0537L24.9898 52.2875H25.0348L29.0381 41.8117H32.7942L26.2267 57.7963H23.4152L17.0503 41.8117Z" fill="black" fill-opacity="0.3"/>
<path fill-rule="evenodd" clip-rule="evenodd" d="M45.7281 49.804C45.7281 50.5568 45.8441 51.2453 46.0767 51.8699C46.3089 52.4946 46.6425 53.0365 47.0775 53.4953C47.5124 53.9546 48.0334 54.312 48.6407 54.5677C49.2479 54.8239 49.9263 54.9516 50.6761 54.9516C51.4258 54.9516 52.1044 54.8239 52.7116 54.5677C53.3189 54.312 53.8396 53.9546 54.2747 53.4953C54.7094 53.0365 55.0429 52.4946 55.2756 51.8699C55.5079 51.2453 55.6242 50.5568 55.6242 49.804C55.6242 49.0667 55.5079 48.3816 55.2756 47.7494C55.0429 47.1173 54.7094 46.572 54.2747 46.1126C53.8396 45.6536 53.3189 45.2964 52.7116 45.0402C52.1044 44.7845 51.4258 44.6565 50.6761 44.6565C49.9263 44.6565 49.2479 44.7845 48.6407 45.0402C48.0334 45.2964 47.5124 45.6536 47.0775 46.1126C46.6425 46.572 46.3089 47.1173 46.0767 47.7494C45.8441 48.3816 45.7281 49.0667 45.7281 49.804ZM42.0845 49.804C42.0845 48.5248 42.2982 47.3657 42.7254 46.3272C43.1528 45.2886 43.7488 44.4045 44.5135 43.6743C45.2782 42.9444 46.1853 42.3838 47.2351 41.9923C48.2843 41.601 49.4315 41.4053 50.6761 41.4053C51.9207 41.4053 53.0676 41.601 54.1174 41.9923C55.1666 42.3838 56.074 42.9444 56.8387 43.6743C57.6034 44.4045 58.1994 45.2886 58.6268 46.3272C59.0541 47.3657 59.2678 48.5248 59.2678 49.804C59.2678 51.0834 59.0541 52.2424 58.6268 53.2809C58.1994 54.3195 57.6034 55.2039 56.8387 55.9338C56.074 56.664 55.1666 57.2244 54.1174 57.6157C53.0676 58.0069 51.9207 58.2028 50.6761 58.2028C49.4315 58.2028 48.2843 58.0069 47.2351 57.6157C46.1853 57.2244 45.2782 56.664 44.5135 55.9338C43.7488 55.2039 43.1528 54.3195 42.7254 53.2809C42.2982 52.2424 42.0845 51.0834 42.0845 49.804Z" fill="black" fill-opacity="0.3"/>
<mask id="mask3_191_601" style="mask-type:alpha" maskUnits="userSpaceOnUse" x="15" y="11" width="49" height="51">
<path d="M15.8018 61.7385H63.7668V11.0849H15.8018V61.7385Z" fill="white"/>
</mask>
<g mask="url(#mask3_191_601)">
<path fill-rule="evenodd" clip-rule="evenodd" d="M43.1938 21.1937H57.5729V17.9257H43.1938V21.1937Z" fill="black" fill-opacity="0.3"/>
<path fill-rule="evenodd" clip-rule="evenodd" d="M43.1938 27.4073H57.5729V24.1393H43.1938V27.4073Z" fill="black" fill-opacity="0.3"/>
<path fill-rule="evenodd" clip-rule="evenodd" d="M43.1938 33.6209H57.5729V30.3529H43.1938V33.6209Z" fill="black" fill-opacity="0.3"/>
<path fill-rule="evenodd" clip-rule="evenodd" d="M50.5518 33.6209H57.5731V30.353H52.573L50.5518 33.6209Z" fill="black"/>
<path fill-rule="evenodd" clip-rule="evenodd" d="M54.1177 41.9923C53.068 41.601 51.921 41.4053 50.6766 41.4053C49.4318 41.4053 48.2848 41.601 47.2354 41.9923C46.1856 42.3838 45.2786 42.9444 44.5139 43.6743C44.3293 43.8506 44.155 44.0364 43.99 44.2307L42.806 46.1451C42.7793 46.2058 42.7513 46.2653 42.7259 46.3272C42.2987 47.3657 42.085 48.5248 42.085 49.8041C42.085 51.0834 42.2987 52.2424 42.7259 53.2809C43.1532 54.3195 43.7493 55.2039 44.5139 55.9338C45.0545 56.4499 45.6677 56.8796 46.3506 57.2262C47.1775 56.4355 47.9508 55.5526 48.6714 54.5797C48.6613 54.5755 48.6511 54.5721 48.641 54.5678C48.0339 54.312 47.5127 53.9546 47.0779 53.4953C46.6429 53.0365 46.3094 52.4946 46.077 51.8699C45.8445 51.2454 45.7284 50.5568 45.7284 49.8041C45.7284 49.0667 45.8445 48.3816 46.077 47.7494C46.3094 47.1173 46.6429 46.572 47.0779 46.1126C47.5127 45.6537 48.0339 45.2964 48.641 45.0402C49.2484 44.7845 49.9266 44.6565 50.6766 44.6565C51.4262 44.6565 52.1047 44.7845 52.712 45.0402C53.2441 45.2646 53.7096 45.5667 54.1095 45.9467L55.9599 42.9546C55.4041 42.5648 54.7905 42.2434 54.1177 41.9923Z" fill="black"/>
<path fill-rule="evenodd" clip-rule="evenodd" d="M23.1569 57.1472C23.4518 57.3667 23.7557 57.5832 24.0691 57.7963H26.2267L29.1743 50.6224C28.3248 50.0203 27.6167 49.3125 27.0537 48.4961C26.9262 48.3115 26.8097 48.1235 26.6986 47.9334L25.0348 52.2874H24.9898L21.0537 41.8116H17.0503L23.1569 57.1472Z" fill="black"/>
<path fill-rule="evenodd" clip-rule="evenodd" d="M22.1335 33.9103V28.4661L18.9126 33.6741C18.8638 33.7527 18.817 33.8316 18.7695 33.9103H22.1335Z" fill="black"/>
<path fill-rule="evenodd" clip-rule="evenodd" d="M29.9466 33.9103L30.6843 32.7176L27.3511 27.1598C28.4757 26.9491 29.3304 26.4486 29.9151 25.6583C30.4999 24.8682 30.7924 23.9085 30.7924 22.7798C30.7924 21.8466 30.6311 21.0678 30.3088 20.4431C29.9862 19.8187 29.5515 19.322 29.0043 18.953C28.7751 18.7985 28.5291 18.6637 28.2683 18.5462L26.5126 21.3849C26.6612 21.4948 26.7921 21.6272 26.9013 21.7864C27.0661 22.0273 27.1488 22.3508 27.1488 22.7572C27.1488 23.1938 27.0549 23.5326 26.8677 23.7731C26.6799 24.0141 26.4437 24.1909 26.1592 24.3037C25.8741 24.4166 25.5553 24.4843 25.2033 24.507C24.9821 24.521 24.7712 24.5291 24.5649 24.5344L22.7178 27.521H23.8651L27.1938 33.9103H29.9466Z" fill="black"/>
<path fill-rule="evenodd" clip-rule="evenodd" d="M54.3945 27.4073H57.573V26.4718L55.6964 25.3023L54.3945 27.4073Z" fill="black"/>
</g>
</svg>
